<svg width="38" height="39" viewBox="0 0 38 39" fill="none" xmlns="http://www.w3.org/2000/svg">
<path d="M28 28.5828L22 22.5828M24 17.5828C24 18.5021 23.8189 19.4123 23.4672 20.2616C23.1154 21.1109 22.5998 21.8826 21.9497 22.5326C21.2997 23.1826 20.5281 23.6982 19.6788 24.05C18.8295 24.4018 17.9193 24.5828 17 24.5828C16.0807 24.5828 15.1705 24.4018 14.3212 24.05C13.4719 23.6982 12.7003 23.1826 12.0503 22.5326C11.4002 21.8826 10.8846 21.1109 10.5328 20.2616C10.1811 19.4123 10 18.5021 10 17.5828C10 15.7263 10.7375 13.9458 12.0503 12.6331C13.363 11.3203 15.1435 10.5828 17 10.5828C18.8565 10.5828 20.637 11.3203 21.9497 12.6331C23.2625 13.9458 24 15.7263 24 17.5828Z" stroke="white" stroke-width="2" stroke-linecap="round" stroke-linejoin="round"/>
</svg>
