<svg width="53" height="53" viewBox="0 0 53 53" fill="none" xmlns="http://www.w3.org/2000/svg">
<rect width="53" height="53" rx="26.5" fill="#E0E0E0"/>
<path d="M20.0684 31.2729V23.3887H22.5784V31.2729H20.0684ZM21.326 22.4698C20.9735 22.4698 20.6707 22.3535 20.4174 22.1208C20.1642 21.8847 20.0376 21.6007 20.0376 21.2687C20.0376 20.9402 20.1642 20.6596 20.4174 20.4269C20.6707 20.1908 20.9735 20.0727 21.326 20.0727C21.6819 20.0727 21.9847 20.1908 22.2345 20.4269C22.4877 20.6596 22.6144 20.9402 22.6144 21.2687C22.6144 21.6007 22.4877 21.8847 22.2345 22.1208C21.9847 22.3535 21.6819 22.4698 21.326 22.4698ZM26.6861 26.7764V31.2729H24.1761V23.3887H26.5629V24.8362H26.6502C26.8247 24.3537 27.1224 23.9755 27.5433 23.7018C27.9642 23.4246 28.4656 23.286 29.0473 23.286C29.6017 23.286 30.0825 23.4109 30.4897 23.6607C30.9003 23.9071 31.2186 24.2527 31.4444 24.6976C31.6737 25.139 31.7866 25.6557 31.7832 26.2477V31.2729H29.2731V26.7405C29.2766 26.3025 29.1654 25.9603 28.9395 25.7139C28.7171 25.4675 28.4074 25.3443 28.0104 25.3443C27.7469 25.3443 27.5142 25.4025 27.3123 25.5188C27.1139 25.6318 26.9599 25.7943 26.8504 26.0065C26.7443 26.2186 26.6895 26.4753 26.6861 26.7764Z" fill="black"/>
</svg>
