<svg width="139" height="74" viewBox="0 0 139 74" fill="none" xmlns="http://www.w3.org/2000/svg">
<path d="M52.1022 48.7319C51.7868 48.5084 51.767 48.0748 52.0612 47.8273L61.257 40.0969C61.5512 39.8494 61.5314 39.4165 61.216 39.1922L42.3768 25.8317C42.0614 25.6082 42.0416 25.1746 42.3358 24.9271L48.6138 19.6503C48.908 19.4028 48.8882 18.9692 48.5728 18.7457L45.5632 16.6129C45.3192 16.4394 44.9756 16.4528 44.7479 16.6446L38.1268 22.2098C37.8991 22.4015 37.5554 22.4142 37.3115 22.2415L33.7962 19.7476C33.4808 19.5241 33.4617 19.0905 33.7559 18.843L40.0248 13.5775C40.319 13.33 40.2999 12.8964 39.9845 12.6729L36.9748 10.5386C36.7309 10.3652 36.3872 10.3786 36.1595 10.5703L25.9588 19.1462C25.6647 19.3937 25.6845 19.8273 26.0006 20.0508L33.3634 25.2684C33.6788 25.4919 33.6986 25.9255 33.4044 26.173L24.2086 33.9035C23.9145 34.1509 23.9343 34.5839 24.2497 34.8081L43.0889 48.1686C43.4043 48.3921 43.4241 48.8257 43.1299 49.0732L36.8518 54.35C36.5576 54.5975 36.5774 55.0311 36.8928 55.2546L39.9025 57.3875C40.1464 57.5609 40.4901 57.5475 40.7178 57.3557L47.3389 51.7906C47.5666 51.5988 47.9102 51.5861 48.1542 51.7588L51.6694 54.2527C51.9848 54.4762 52.0039 54.9098 51.7098 55.1573L45.4409 60.4221C45.1467 60.6696 45.1658 61.1032 45.4812 61.3267L48.4908 63.461C48.7348 63.6345 49.0784 63.6211 49.3061 63.4293L59.5068 54.8534C59.801 54.6059 59.7812 54.1723 59.4651 53.9488L52.1022 48.7319ZM38.4266 28.8608L43.2204 32.2606C43.5294 32.4799 43.5556 32.9023 43.2756 33.1533L37.8538 37.9957C37.6268 38.1981 37.2747 38.2171 37.0243 38.0394L32.0467 34.5091C31.7313 34.2856 31.7115 33.852 32.0057 33.6045L37.6113 28.8918C37.8397 28.7007 38.1827 28.6873 38.4266 28.8608ZM47.039 45.141L42.0847 41.6262C41.7757 41.4069 41.7495 40.9846 42.0296 40.7342L47.4499 35.8911C47.6769 35.6887 48.029 35.6697 48.2794 35.8474L53.4189 39.4926C53.7343 39.7161 53.7541 40.1497 53.46 40.3972L47.8544 45.11C47.626 45.301 47.283 45.3144 47.039 45.141Z" fill="url(#paint0_linear_449_92)"/>
<path d="M71.541 23.515C70.8597 23.515 70.2437 23.3983 69.693 23.165C69.1517 22.9317 68.7223 22.5957 68.405 22.157C68.0877 21.7183 67.9243 21.2003 67.915 20.603H70.015C70.043 21.0043 70.183 21.3217 70.435 21.555C70.6963 21.7883 71.051 21.905 71.499 21.905C71.9563 21.905 72.3157 21.7977 72.577 21.583C72.8383 21.359 72.969 21.0697 72.969 20.715C72.969 20.4257 72.8803 20.1877 72.703 20.001C72.5257 19.8143 72.3017 19.6697 72.031 19.567C71.7697 19.455 71.4057 19.3337 70.939 19.203C70.3043 19.0163 69.7863 18.8343 69.385 18.657C68.993 18.4703 68.6523 18.195 68.363 17.831C68.083 17.4577 67.943 16.963 67.943 16.347C67.943 15.7683 68.0877 15.2643 68.377 14.835C68.6663 14.4057 69.0723 14.079 69.595 13.855C70.1177 13.6217 70.715 13.505 71.387 13.505C72.395 13.505 73.2117 13.7523 73.837 14.247C74.4717 14.7323 74.8217 15.4137 74.887 16.291H72.731C72.7123 15.955 72.5677 15.6797 72.297 15.465C72.0357 15.241 71.6857 15.129 71.247 15.129C70.8643 15.129 70.5563 15.227 70.323 15.423C70.099 15.619 69.987 15.9037 69.987 16.277C69.987 16.5383 70.071 16.7577 70.239 16.935C70.4163 17.103 70.631 17.243 70.883 17.355C71.1443 17.4577 71.5083 17.579 71.975 17.719C72.6097 17.9057 73.1277 18.0923 73.529 18.279C73.9303 18.4657 74.2757 18.7457 74.565 19.119C74.8543 19.4923 74.999 19.9823 74.999 20.589C74.999 21.1117 74.8637 21.597 74.593 22.045C74.3223 22.493 73.9257 22.8523 73.403 23.123C72.8803 23.3843 72.2597 23.515 71.541 23.515ZM84.1183 15.661L79.3163 27.085H77.2303L78.9103 23.221L75.8023 15.661H78.0003L80.0023 21.079L82.0323 15.661H84.1183ZM89.4728 15.549C90.3968 15.549 91.1435 15.843 91.7128 16.431C92.2821 17.0097 92.5668 17.8217 92.5668 18.867V23.417H90.6068V19.133C90.6068 18.517 90.4528 18.0457 90.1448 17.719C89.8368 17.383 89.4168 17.215 88.8848 17.215C88.3435 17.215 87.9142 17.383 87.5968 17.719C87.2888 18.0457 87.1348 18.517 87.1348 19.133V23.417H85.1748V15.661H87.1348V16.627C87.3962 16.291 87.7275 16.0297 88.1288 15.843C88.5395 15.647 88.9875 15.549 89.4728 15.549ZM101.641 19.371C101.641 19.651 101.622 19.903 101.585 20.127H95.9147C95.9613 20.687 96.1573 21.1257 96.5027 21.443C96.848 21.7603 97.2727 21.919 97.7767 21.919C98.5047 21.919 99.0227 21.6063 99.3307 20.981H101.445C101.221 21.7277 100.791 22.3437 100.157 22.829C99.522 23.305 98.7427 23.543 97.8187 23.543C97.072 23.543 96.4 23.3797 95.8027 23.053C95.2147 22.717 94.7527 22.2457 94.4167 21.639C94.09 21.0323 93.9267 20.3323 93.9267 19.539C93.9267 18.7363 94.09 18.0317 94.4167 17.425C94.7433 16.8183 95.2007 16.3517 95.7887 16.025C96.3767 15.6983 97.0533 15.535 97.8187 15.535C98.556 15.535 99.214 15.6937 99.7927 16.011C100.381 16.3283 100.833 16.781 101.151 17.369C101.477 17.9477 101.641 18.615 101.641 19.371ZM99.6107 18.811C99.6013 18.307 99.4193 17.9057 99.0647 17.607C98.71 17.299 98.276 17.145 97.7627 17.145C97.2773 17.145 96.8667 17.2943 96.5307 17.593C96.204 17.8823 96.0033 18.2883 95.9287 18.811H99.6107ZM105.031 16.865C105.283 16.4543 105.61 16.1323 106.011 15.899C106.422 15.6657 106.889 15.549 107.411 15.549V17.607H106.893C106.277 17.607 105.811 17.7517 105.493 18.041C105.185 18.3303 105.031 18.8343 105.031 19.553V23.417H103.071V15.661H105.031V16.865ZM111.769 15.535C112.348 15.535 112.857 15.6517 113.295 15.885C113.734 16.109 114.079 16.403 114.331 16.767V15.661H116.305V23.473C116.305 24.1917 116.161 24.831 115.871 25.391C115.582 25.9603 115.148 26.4083 114.569 26.735C113.991 27.071 113.291 27.239 112.469 27.239C111.368 27.239 110.463 26.9823 109.753 26.469C109.053 25.9557 108.657 25.2557 108.563 24.369H110.509C110.612 24.7237 110.831 25.0037 111.167 25.209C111.513 25.4237 111.928 25.531 112.413 25.531C112.983 25.531 113.445 25.3583 113.799 25.013C114.154 24.677 114.331 24.1637 114.331 23.473V22.269C114.079 22.633 113.729 22.9363 113.281 23.179C112.843 23.4217 112.339 23.543 111.769 23.543C111.116 23.543 110.519 23.375 109.977 23.039C109.436 22.703 109.007 22.2317 108.689 21.625C108.381 21.009 108.227 20.3043 108.227 19.511C108.227 18.727 108.381 18.0317 108.689 17.425C109.007 16.8183 109.431 16.3517 109.963 16.025C110.505 15.6983 111.107 15.535 111.769 15.535ZM114.331 19.539C114.331 19.063 114.238 18.657 114.051 18.321C113.865 17.9757 113.613 17.7143 113.295 17.537C112.978 17.3503 112.637 17.257 112.273 17.257C111.909 17.257 111.573 17.3457 111.265 17.523C110.957 17.7003 110.705 17.9617 110.509 18.307C110.323 18.643 110.229 19.0443 110.229 19.511C110.229 19.9777 110.323 20.3883 110.509 20.743C110.705 21.0883 110.957 21.3543 111.265 21.541C111.583 21.7277 111.919 21.821 112.273 21.821C112.637 21.821 112.978 21.7323 113.295 21.555C113.613 21.3683 113.865 21.107 114.051 20.771C114.238 20.4257 114.331 20.015 114.331 19.539ZM125.64 15.661L120.838 27.085H118.752L120.432 23.221L117.324 15.661H119.522L121.524 21.079L123.554 15.661H125.64ZM69.3398 40.515C68.6585 40.515 68.0425 40.3983 67.4918 40.165C66.9505 39.9317 66.5212 39.5957 66.2038 39.157C65.8865 38.7183 65.7232 38.2003 65.7138 37.603H67.8138C67.8418 38.0043 67.9818 38.3217 68.2338 38.555C68.4952 38.7883 68.8498 38.905 69.2978 38.905C69.7552 38.905 70.1145 38.7977 70.3758 38.583C70.6372 38.359 70.7678 38.0697 70.7678 37.715C70.7678 37.4257 70.6792 37.1877 70.5018 37.001C70.3245 36.8143 70.1005 36.6697 69.8298 36.567C69.5685 36.455 69.2045 36.3337 68.7378 36.203C68.1032 36.0163 67.5852 35.8343 67.1838 35.657C66.7918 35.4703 66.4512 35.195 66.1618 34.831C65.8818 34.4577 65.7418 33.963 65.7418 33.347C65.7418 32.7683 65.8865 32.2643 66.1758 31.835C66.4652 31.4057 66.8712 31.079 67.3938 30.855C67.9165 30.6217 68.5138 30.505 69.1858 30.505C70.1938 30.505 71.0105 30.7523 71.6358 31.247C72.2705 31.7323 72.6205 32.4137 72.6858 33.291H70.5298C70.5112 32.955 70.3665 32.6797 70.0958 32.465C69.8345 32.241 69.4845 32.129 69.0458 32.129C68.6632 32.129 68.3552 32.227 68.1218 32.423C67.8978 32.619 67.7858 32.9037 67.7858 33.277C67.7858 33.5383 67.8698 33.7577 68.0378 33.935C68.2152 34.103 68.4298 34.243 68.6818 34.355C68.9432 34.4577 69.3072 34.579 69.7738 34.719C70.4085 34.9057 70.9265 35.0923 71.3278 35.279C71.7292 35.4657 72.0745 35.7457 72.3638 36.119C72.6532 36.4923 72.7978 36.9823 72.7978 37.589C72.7978 38.1117 72.6625 38.597 72.3918 39.045C72.1212 39.493 71.7245 39.8523 71.2018 40.123C70.6792 40.3843 70.0585 40.515 69.3398 40.515ZM76.4571 33.781C76.7091 33.4263 77.0544 33.1323 77.4931 32.899C77.9411 32.6563 78.4497 32.535 79.0191 32.535C79.6817 32.535 80.2791 32.6983 80.8111 33.025C81.3524 33.3517 81.7771 33.8183 82.0851 34.425C82.4024 35.0223 82.5611 35.7177 82.5611 36.511C82.5611 37.3043 82.4024 38.009 82.0851 38.625C81.7771 39.2317 81.3524 39.703 80.8111 40.039C80.2791 40.375 79.6817 40.543 79.0191 40.543C78.4497 40.543 77.9457 40.4263 77.5071 40.193C77.0777 39.9597 76.7277 39.6657 76.4571 39.311V44.113H74.4971V32.661H76.4571V33.781ZM80.5591 36.511C80.5591 36.0443 80.4611 35.643 80.2651 35.307C80.0784 34.9617 79.8264 34.7003 79.5091 34.523C79.2011 34.3457 78.8651 34.257 78.5011 34.257C78.1464 34.257 77.8104 34.3503 77.4931 34.537C77.1851 34.7143 76.9331 34.9757 76.7371 35.321C76.5504 35.6663 76.4571 36.0723 76.4571 36.539C76.4571 37.0057 76.5504 37.4117 76.7371 37.757C76.9331 38.1023 77.1851 38.3683 77.4931 38.555C77.8104 38.7323 78.1464 38.821 78.5011 38.821C78.8651 38.821 79.2011 38.7277 79.5091 38.541C79.8264 38.3543 80.0784 38.0883 80.2651 37.743C80.4611 37.3977 80.5591 36.987 80.5591 36.511ZM91.1954 36.371C91.1954 36.651 91.1767 36.903 91.1394 37.127H85.4694C85.516 37.687 85.712 38.1257 86.0574 38.443C86.4027 38.7603 86.8274 38.919 87.3314 38.919C88.0594 38.919 88.5774 38.6063 88.8854 37.981H90.9994C90.7754 38.7277 90.346 39.3437 89.7114 39.829C89.0767 40.305 88.2974 40.543 87.3734 40.543C86.6267 40.543 85.9547 40.3797 85.3574 40.053C84.7694 39.717 84.3074 39.2457 83.9714 38.639C83.6447 38.0323 83.4814 37.3323 83.4814 36.539C83.4814 35.7363 83.6447 35.0317 83.9714 34.425C84.298 33.8183 84.7554 33.3517 85.3434 33.025C85.9314 32.6983 86.608 32.535 87.3734 32.535C88.1107 32.535 88.7687 32.6937 89.3474 33.011C89.9354 33.3283 90.388 33.781 90.7054 34.369C91.032 34.9477 91.1954 35.615 91.1954 36.371ZM89.1654 35.811C89.156 35.307 88.974 34.9057 88.6194 34.607C88.2647 34.299 87.8307 34.145 87.3174 34.145C86.832 34.145 86.4214 34.2943 86.0854 34.593C85.7587 34.8823 85.558 35.2883 85.4834 35.811H89.1654ZM92.122 36.539C92.122 35.7363 92.2853 35.0363 92.612 34.439C92.9387 33.8323 93.3913 33.3657 93.97 33.039C94.5487 32.703 95.2113 32.535 95.958 32.535C96.9193 32.535 97.7127 32.7777 98.338 33.263C98.9727 33.739 99.3973 34.411 99.612 35.279H97.498C97.386 34.943 97.1947 34.6817 96.924 34.495C96.6627 34.299 96.336 34.201 95.944 34.201C95.384 34.201 94.9407 34.4063 94.614 34.817C94.2873 35.2183 94.124 35.7923 94.124 36.539C94.124 37.2763 94.2873 37.8503 94.614 38.261C94.9407 38.6623 95.384 38.863 95.944 38.863C96.7373 38.863 97.2553 38.5083 97.498 37.799H99.612C99.3973 38.639 98.9727 39.3063 98.338 39.801C97.7033 40.2957 96.91 40.543 95.958 40.543C95.2113 40.543 94.5487 40.3797 93.97 40.053C93.3913 39.717 92.9387 39.2503 92.612 38.653C92.2853 38.0463 92.122 37.3417 92.122 36.539ZM102.042 31.737C101.697 31.737 101.407 31.6297 101.174 31.415C100.95 31.191 100.838 30.9157 100.838 30.589C100.838 30.2623 100.95 29.9917 101.174 29.777C101.407 29.553 101.697 29.441 102.042 29.441C102.387 29.441 102.672 29.553 102.896 29.777C103.129 29.9917 103.246 30.2623 103.246 30.589C103.246 30.9157 103.129 31.191 102.896 31.415C102.672 31.6297 102.387 31.737 102.042 31.737ZM103.008 32.661V40.417H101.048V32.661H103.008ZM104.44 36.511C104.44 35.727 104.594 35.0317 104.902 34.425C105.22 33.8183 105.644 33.3517 106.176 33.025C106.718 32.6983 107.32 32.535 107.982 32.535C108.561 32.535 109.065 32.6517 109.494 32.885C109.933 33.1183 110.283 33.4123 110.544 33.767V32.661H112.518V40.417H110.544V39.283C110.292 39.647 109.942 39.9503 109.494 40.193C109.056 40.4263 108.547 40.543 107.968 40.543C107.315 40.543 106.718 40.375 106.176 40.039C105.644 39.703 105.22 39.2317 104.902 38.625C104.594 38.009 104.44 37.3043 104.44 36.511ZM110.544 36.539C110.544 36.063 110.451 35.657 110.264 35.321C110.078 34.9757 109.826 34.7143 109.508 34.537C109.191 34.3503 108.85 34.257 108.486 34.257C108.122 34.257 107.786 34.3457 107.478 34.523C107.17 34.7003 106.918 34.9617 106.722 35.307C106.536 35.643 106.442 36.0443 106.442 36.511C106.442 36.9777 106.536 37.3883 106.722 37.743C106.918 38.0883 107.17 38.3543 107.478 38.541C107.796 38.7277 108.132 38.821 108.486 38.821C108.85 38.821 109.191 38.7323 109.508 38.555C109.826 38.3683 110.078 38.107 110.264 37.771C110.451 37.4257 110.544 37.015 110.544 36.539ZM116.393 30.057V40.417H114.433V30.057H116.393ZM120.611 34.271V38.023C120.611 38.2843 120.672 38.4757 120.793 38.597C120.924 38.709 121.138 38.765 121.437 38.765H122.347V40.417H121.115C119.463 40.417 118.637 39.6143 118.637 38.009V34.271H117.713V32.661H118.637V30.743H120.611V32.661H122.347V34.271H120.611ZM131.177 32.661L126.375 44.085H124.289L125.969 40.221L122.861 32.661H125.059L127.061 38.079L129.091 32.661H131.177Z" fill="white"/>
<path d="M76.7961 54.529H79.7241V55.417H75.7041V47.053H76.7961V54.529ZM81.4478 47.773C81.2398 47.773 81.0638 47.701 80.9198 47.557C80.7758 47.413 80.7038 47.237 80.7038 47.029C80.7038 46.821 80.7758 46.645 80.9198 46.501C81.0638 46.357 81.2398 46.285 81.4478 46.285C81.6478 46.285 81.8158 46.357 81.9518 46.501C82.0958 46.645 82.1678 46.821 82.1678 47.029C82.1678 47.237 82.0958 47.413 81.9518 47.557C81.8158 47.701 81.6478 47.773 81.4478 47.773ZM81.9758 48.841V55.417H80.8838V48.841H81.9758ZM91.7449 48.721C92.2569 48.721 92.7129 48.829 93.1129 49.045C93.5129 49.253 93.8289 49.569 94.0609 49.993C94.2929 50.417 94.4089 50.933 94.4089 51.541V55.417H93.3289V51.697C93.3289 51.041 93.1649 50.541 92.8369 50.197C92.5169 49.845 92.0809 49.669 91.5289 49.669C90.9609 49.669 90.5089 49.853 90.1729 50.221C89.8369 50.581 89.6689 51.105 89.6689 51.793V55.417H88.5889V51.697C88.5889 51.041 88.4249 50.541 88.0969 50.197C87.7769 49.845 87.3409 49.669 86.7889 49.669C86.2209 49.669 85.7689 49.853 85.4329 50.221C85.0969 50.581 84.9289 51.105 84.9289 51.793V55.417H83.8369V48.841H84.9289V49.789C85.1449 49.445 85.4329 49.181 85.7929 48.997C86.1609 48.813 86.5649 48.721 87.0049 48.721C87.5569 48.721 88.0449 48.845 88.4689 49.093C88.8929 49.341 89.2089 49.705 89.4169 50.185C89.6009 49.721 89.9049 49.361 90.3289 49.105C90.7529 48.849 91.2249 48.721 91.7449 48.721ZM96.7642 47.773C96.5562 47.773 96.3802 47.701 96.2362 47.557C96.0922 47.413 96.0202 47.237 96.0202 47.029C96.0202 46.821 96.0922 46.645 96.2362 46.501C96.3802 46.357 96.5562 46.285 96.7642 46.285C96.9642 46.285 97.1322 46.357 97.2682 46.501C97.4122 46.645 97.4842 46.821 97.4842 47.029C97.4842 47.237 97.4122 47.413 97.2682 47.557C97.1322 47.701 96.9642 47.773 96.7642 47.773ZM97.2922 48.841V55.417H96.2002V48.841H97.2922ZM100.485 49.741V53.617C100.485 53.937 100.553 54.165 100.689 54.301C100.825 54.429 101.061 54.493 101.397 54.493H102.201V55.417H101.217C100.609 55.417 100.153 55.277 99.8493 54.997C99.5453 54.717 99.3933 54.257 99.3933 53.617V49.741H98.5413V48.841H99.3933V47.185H100.485V48.841H102.201V49.741H100.485ZM109.524 51.877C109.524 52.085 109.512 52.305 109.488 52.537H104.232C104.272 53.185 104.492 53.693 104.892 54.061C105.3 54.421 105.792 54.601 106.368 54.601C106.84 54.601 107.232 54.493 107.544 54.277C107.864 54.053 108.088 53.757 108.216 53.389H109.392C109.216 54.021 108.864 54.537 108.336 54.937C107.808 55.329 107.152 55.525 106.368 55.525C105.744 55.525 105.184 55.385 104.688 55.105C104.2 54.825 103.816 54.429 103.536 53.917C103.256 53.397 103.116 52.797 103.116 52.117C103.116 51.437 103.252 50.841 103.524 50.329C103.796 49.817 104.176 49.425 104.664 49.153C105.16 48.873 105.728 48.733 106.368 48.733C106.992 48.733 107.544 48.869 108.024 49.141C108.504 49.413 108.872 49.789 109.128 50.269C109.392 50.741 109.524 51.277 109.524 51.877ZM108.396 51.649C108.396 51.233 108.304 50.877 108.12 50.581C107.936 50.277 107.684 50.049 107.364 49.897C107.052 49.737 106.704 49.657 106.32 49.657C105.768 49.657 105.296 49.833 104.904 50.185C104.52 50.537 104.3 51.025 104.244 51.649H108.396ZM110.558 52.105C110.558 51.433 110.694 50.845 110.966 50.341C111.238 49.829 111.61 49.433 112.082 49.153C112.562 48.873 113.098 48.733 113.69 48.733C114.202 48.733 114.678 48.853 115.118 49.093C115.558 49.325 115.894 49.633 116.126 50.017V46.537H117.23V55.417H116.126V54.181C115.91 54.573 115.59 54.897 115.166 55.153C114.742 55.401 114.246 55.525 113.678 55.525C113.094 55.525 112.562 55.381 112.082 55.093C111.61 54.805 111.238 54.401 110.966 53.881C110.694 53.361 110.558 52.769 110.558 52.105ZM116.126 52.117C116.126 51.621 116.026 51.189 115.826 50.821C115.626 50.453 115.354 50.173 115.01 49.981C114.674 49.781 114.302 49.681 113.894 49.681C113.486 49.681 113.114 49.777 112.778 49.969C112.442 50.161 112.174 50.441 111.974 50.809C111.774 51.177 111.674 51.609 111.674 52.105C111.674 52.609 111.774 53.049 111.974 53.425C112.174 53.793 112.442 54.077 112.778 54.277C113.114 54.469 113.486 54.565 113.894 54.565C114.302 54.565 114.674 54.469 115.01 54.277C115.354 54.077 115.626 53.793 115.826 53.425C116.026 53.049 116.126 52.613 116.126 52.117Z" fill="#DAD7D7" fill-opacity="0.95"/>
<defs>
<linearGradient id="paint0_linear_449_92" x1="32.9495" y1="46.7548" x2="57.3925" y2="22.24" gradientUnits="userSpaceOnUse">
<stop stop-color="#3181B7"/>
<stop offset="0.5335" stop-color="#009647"/>
</linearGradient>
</defs>
</svg>
