<svg width="247" height="54" viewBox="0 0 247 54" fill="none" xmlns="http://www.w3.org/2000/svg">
<path d="M28.1022 38.315C27.7868 38.0914 27.767 37.6578 28.0612 37.4103L37.257 29.6799C37.5512 29.4324 37.5314 28.9995 37.216 28.7753L18.3768 15.4147C18.0614 15.1912 18.0416 14.7576 18.3358 14.5101L24.6138 9.23333C24.908 8.98585 24.8882 8.55223 24.5728 8.32872L21.5632 6.19586C21.3192 6.02241 20.9756 6.03581 20.7479 6.22759L14.1268 11.7928C13.8991 11.9845 13.5554 11.9972 13.3115 11.8245L9.7962 9.33063C9.48081 9.10712 9.46172 8.6735 9.75589 8.42602L16.0248 3.1605C16.319 2.91302 16.2999 2.4794 15.9845 2.25589L12.9748 0.12162C12.7309 -0.0518295 12.3872 -0.0384331 12.1595 0.153348L1.95885 8.7292C1.66467 8.97669 1.68447 9.41031 2.00057 9.63382L9.36343 14.8514C9.67881 15.0749 9.69862 15.5085 9.40444 15.756L0.208648 23.4865C-0.085527 23.734 -0.065727 24.1669 0.249662 24.3911L19.0889 37.7516C19.4043 37.9751 19.4241 38.4087 19.1299 38.6562L12.8518 43.933C12.5576 44.1805 12.5774 44.6141 12.8928 44.8376L15.9025 46.9705C16.1464 47.1439 16.4901 47.1305 16.7178 46.9388L23.3389 41.3736C23.5666 41.1818 23.9102 41.1691 24.1542 41.3418L27.6694 43.8357C27.9848 44.0592 28.0039 44.4928 27.7098 44.7403L21.4409 50.0051C21.1467 50.2526 21.1658 50.6862 21.4812 50.9097L24.4908 53.044C24.7348 53.2175 25.0784 53.2041 25.3061 53.0123L35.5068 44.4364C35.801 44.1889 35.7812 43.7553 35.4651 43.5318L28.1022 38.315ZM14.4266 18.4438L19.2204 21.8436C19.5294 22.0629 19.5556 22.4853 19.2756 22.7363L13.8538 27.5787C13.6268 27.7811 13.2747 27.8001 13.0243 27.6225L8.04671 24.0921C7.73132 23.8686 7.71152 23.435 8.0057 23.1875L13.6113 18.4748C13.8397 18.2837 14.1827 18.2703 14.4266 18.4438ZM23.039 34.724L18.0847 31.2092C17.7757 30.9899 17.7495 30.5676 18.0296 30.3173L23.4499 25.4741C23.6769 25.2717 24.029 25.2527 24.2794 25.4304L29.4189 29.0756C29.7343 29.2991 29.7541 29.7327 29.46 29.9802L23.8544 34.693C23.626 34.884 23.283 34.8974 23.039 34.724Z" fill="url(#paint0_linear_576_324)"/>
<path d="M47.541 13.098C46.8597 13.098 46.2437 12.9813 45.693 12.748C45.1517 12.5147 44.7223 12.1787 44.405 11.74C44.0877 11.3013 43.9243 10.7833 43.915 10.186H46.015C46.043 10.5873 46.183 10.9047 46.435 11.138C46.6963 11.3713 47.051 11.488 47.499 11.488C47.9563 11.488 48.3157 11.3807 48.577 11.166C48.8383 10.942 48.969 10.6527 48.969 10.298C48.969 10.0087 48.8803 9.77067 48.703 9.584C48.5257 9.39733 48.3017 9.25267 48.031 9.15C47.7697 9.038 47.4057 8.91667 46.939 8.786C46.3043 8.59933 45.7863 8.41733 45.385 8.24C44.993 8.05333 44.6523 7.778 44.363 7.414C44.083 7.04067 43.943 6.546 43.943 5.93C43.943 5.35133 44.0877 4.84733 44.377 4.418C44.6663 3.98867 45.0723 3.662 45.595 3.438C46.1177 3.20467 46.715 3.088 47.387 3.088C48.395 3.088 49.2117 3.33533 49.837 3.83C50.4717 4.31533 50.8217 4.99667 50.887 5.874H48.731C48.7123 5.538 48.5677 5.26267 48.297 5.048C48.0357 4.824 47.6857 4.712 47.247 4.712C46.8643 4.712 46.5563 4.81 46.323 5.006C46.099 5.202 45.987 5.48667 45.987 5.86C45.987 6.12133 46.071 6.34067 46.239 6.518C46.4163 6.686 46.631 6.826 46.883 6.938C47.1443 7.04067 47.5083 7.162 47.975 7.302C48.6097 7.48867 49.1277 7.67533 49.529 7.862C49.9303 8.04867 50.2757 8.32867 50.565 8.702C50.8543 9.07533 50.999 9.56533 50.999 10.172C50.999 10.6947 50.8637 11.18 50.593 11.628C50.3223 12.076 49.9257 12.4353 49.403 12.706C48.8803 12.9673 48.2597 13.098 47.541 13.098ZM60.1183 5.244L55.3163 16.668H53.2303L54.9103 12.804L51.8023 5.244H54.0003L56.0023 10.662L58.0323 5.244H60.1183ZM65.4728 5.132C66.3968 5.132 67.1435 5.426 67.7128 6.014C68.2821 6.59267 68.5668 7.40467 68.5668 8.45V13H66.6068V8.716C66.6068 8.1 66.4528 7.62867 66.1448 7.302C65.8368 6.966 65.4168 6.798 64.8848 6.798C64.3435 6.798 63.9142 6.966 63.5968 7.302C63.2888 7.62867 63.1348 8.1 63.1348 8.716V13H61.1748V5.244H63.1348V6.21C63.3962 5.874 63.7275 5.61267 64.1288 5.426C64.5395 5.23 64.9875 5.132 65.4728 5.132ZM77.6407 8.954C77.6407 9.234 77.622 9.486 77.5847 9.71H71.9147C71.9613 10.27 72.1573 10.7087 72.5027 11.026C72.848 11.3433 73.2727 11.502 73.7767 11.502C74.5047 11.502 75.0227 11.1893 75.3307 10.564H77.4447C77.2207 11.3107 76.7913 11.9267 76.1567 12.412C75.522 12.888 74.7427 13.126 73.8187 13.126C73.072 13.126 72.4 12.9627 71.8027 12.636C71.2147 12.3 70.7527 11.8287 70.4167 11.222C70.09 10.6153 69.9267 9.91533 69.9267 9.122C69.9267 8.31933 70.09 7.61467 70.4167 7.008C70.7433 6.40133 71.2007 5.93467 71.7887 5.608C72.3767 5.28133 73.0533 5.118 73.8187 5.118C74.556 5.118 75.214 5.27667 75.7927 5.594C76.3807 5.91133 76.8333 6.364 77.1507 6.952C77.4773 7.53067 77.6407 8.198 77.6407 8.954ZM75.6107 8.394C75.6013 7.89 75.4193 7.48867 75.0647 7.19C74.71 6.882 74.276 6.728 73.7627 6.728C73.2773 6.728 72.8667 6.87733 72.5307 7.176C72.204 7.46533 72.0033 7.87133 71.9287 8.394H75.6107ZM81.0313 6.448C81.2833 6.03733 81.61 5.71533 82.0113 5.482C82.422 5.24867 82.8886 5.132 83.4113 5.132V7.19H82.8933C82.2773 7.19 81.8106 7.33467 81.4933 7.624C81.1853 7.91333 81.0313 8.41733 81.0313 9.136V13H79.0713V5.244H81.0313V6.448ZM87.7695 5.118C88.3481 5.118 88.8568 5.23467 89.2955 5.468C89.7341 5.692 90.0795 5.986 90.3315 6.35V5.244H92.3055V13.056C92.3055 13.7747 92.1608 14.414 91.8715 14.974C91.5821 15.5433 91.1481 15.9913 90.5695 16.318C89.9908 16.654 89.2908 16.822 88.4695 16.822C87.3681 16.822 86.4628 16.5653 85.7535 16.052C85.0535 15.5387 84.6568 14.8387 84.5635 13.952H86.5095C86.6121 14.3067 86.8315 14.5867 87.1675 14.792C87.5128 15.0067 87.9281 15.114 88.4135 15.114C88.9828 15.114 89.4448 14.9413 89.7995 14.596C90.1541 14.26 90.3315 13.7467 90.3315 13.056V11.852C90.0795 12.216 89.7295 12.5193 89.2815 12.762C88.8428 13.0047 88.3388 13.126 87.7695 13.126C87.1161 13.126 86.5188 12.958 85.9775 12.622C85.4361 12.286 85.0068 11.8147 84.6895 11.208C84.3815 10.592 84.2275 9.88733 84.2275 9.094C84.2275 8.31 84.3815 7.61467 84.6895 7.008C85.0068 6.40133 85.4315 5.93467 85.9635 5.608C86.5048 5.28133 87.1068 5.118 87.7695 5.118ZM90.3315 9.122C90.3315 8.646 90.2381 8.24 90.0515 7.904C89.8648 7.55867 89.6128 7.29733 89.2955 7.12C88.9781 6.93333 88.6375 6.84 88.2735 6.84C87.9095 6.84 87.5735 6.92867 87.2655 7.106C86.9575 7.28333 86.7055 7.54467 86.5095 7.89C86.3228 8.226 86.2295 8.62733 86.2295 9.094C86.2295 9.56067 86.3228 9.97133 86.5095 10.326C86.7055 10.6713 86.9575 10.9373 87.2655 11.124C87.5828 11.3107 87.9188 11.404 88.2735 11.404C88.6375 11.404 88.9781 11.3153 89.2955 11.138C89.6128 10.9513 89.8648 10.69 90.0515 10.354C90.2381 10.0087 90.3315 9.598 90.3315 9.122ZM101.64 5.244L96.8377 16.668H94.7517L96.4317 12.804L93.3237 5.244H95.5217L97.5237 10.662L99.5537 5.244H101.64ZM45.3398 30.098C44.6585 30.098 44.0425 29.9813 43.4918 29.748C42.9505 29.5147 42.5212 29.1787 42.2038 28.74C41.8865 28.3013 41.7232 27.7833 41.7138 27.186H43.8138C43.8418 27.5873 43.9818 27.9047 44.2338 28.138C44.4952 28.3713 44.8498 28.488 45.2978 28.488C45.7552 28.488 46.1145 28.3807 46.3758 28.166C46.6372 27.942 46.7678 27.6527 46.7678 27.298C46.7678 27.0087 46.6792 26.7707 46.5018 26.584C46.3245 26.3973 46.1005 26.2527 45.8298 26.15C45.5685 26.038 45.2045 25.9167 44.7378 25.786C44.1032 25.5993 43.5852 25.4173 43.1838 25.24C42.7918 25.0533 42.4512 24.778 42.1618 24.414C41.8818 24.0407 41.7418 23.546 41.7418 22.93C41.7418 22.3513 41.8865 21.8473 42.1758 21.418C42.4652 20.9887 42.8712 20.662 43.3938 20.438C43.9165 20.2047 44.5138 20.088 45.1858 20.088C46.1938 20.088 47.0105 20.3353 47.6358 20.83C48.2705 21.3153 48.6205 21.9967 48.6858 22.874H46.5298C46.5112 22.538 46.3665 22.2627 46.0958 22.048C45.8345 21.824 45.4845 21.712 45.0458 21.712C44.6632 21.712 44.3552 21.81 44.1218 22.006C43.8978 22.202 43.7858 22.4867 43.7858 22.86C43.7858 23.1213 43.8698 23.3407 44.0378 23.518C44.2152 23.686 44.4298 23.826 44.6818 23.938C44.9432 24.0407 45.3072 24.162 45.7738 24.302C46.4085 24.4887 46.9265 24.6753 47.3278 24.862C47.7292 25.0487 48.0745 25.3287 48.3638 25.702C48.6532 26.0753 48.7978 26.5653 48.7978 27.172C48.7978 27.6947 48.6625 28.18 48.3918 28.628C48.1212 29.076 47.7245 29.4353 47.2018 29.706C46.6792 29.9673 46.0585 30.098 45.3398 30.098ZM52.4571 23.364C52.7091 23.0093 53.0544 22.7153 53.4931 22.482C53.9411 22.2393 54.4497 22.118 55.0191 22.118C55.6817 22.118 56.2791 22.2813 56.8111 22.608C57.3524 22.9347 57.7771 23.4013 58.0851 24.008C58.4024 24.6053 58.5611 25.3007 58.5611 26.094C58.5611 26.8873 58.4024 27.592 58.0851 28.208C57.7771 28.8147 57.3524 29.286 56.8111 29.622C56.2791 29.958 55.6817 30.126 55.0191 30.126C54.4497 30.126 53.9457 30.0093 53.5071 29.776C53.0777 29.5427 52.7277 29.2487 52.4571 28.894V33.696H50.4971V22.244H52.4571V23.364ZM56.5591 26.094C56.5591 25.6273 56.4611 25.226 56.2651 24.89C56.0784 24.5447 55.8264 24.2833 55.5091 24.106C55.2011 23.9287 54.8651 23.84 54.5011 23.84C54.1464 23.84 53.8104 23.9333 53.4931 24.12C53.1851 24.2973 52.9331 24.5587 52.7371 24.904C52.5504 25.2493 52.4571 25.6553 52.4571 26.122C52.4571 26.5887 52.5504 26.9947 52.7371 27.34C52.9331 27.6853 53.1851 27.9513 53.4931 28.138C53.8104 28.3153 54.1464 28.404 54.5011 28.404C54.8651 28.404 55.2011 28.3107 55.5091 28.124C55.8264 27.9373 56.0784 27.6713 56.2651 27.326C56.4611 26.9807 56.5591 26.57 56.5591 26.094ZM67.1954 25.954C67.1954 26.234 67.1767 26.486 67.1394 26.71H61.4694C61.516 27.27 61.712 27.7087 62.0574 28.026C62.4027 28.3433 62.8274 28.502 63.3314 28.502C64.0594 28.502 64.5774 28.1893 64.8854 27.564H66.9994C66.7754 28.3107 66.346 28.9267 65.7114 29.412C65.0767 29.888 64.2974 30.126 63.3734 30.126C62.6267 30.126 61.9547 29.9627 61.3574 29.636C60.7694 29.3 60.3074 28.8287 59.9714 28.222C59.6447 27.6153 59.4814 26.9153 59.4814 26.122C59.4814 25.3193 59.6447 24.6147 59.9714 24.008C60.298 23.4013 60.7554 22.9347 61.3434 22.608C61.9314 22.2813 62.608 22.118 63.3734 22.118C64.1107 22.118 64.7687 22.2767 65.3474 22.594C65.9354 22.9113 66.388 23.364 66.7054 23.952C67.032 24.5307 67.1954 25.198 67.1954 25.954ZM65.1654 25.394C65.156 24.89 64.974 24.4887 64.6194 24.19C64.2647 23.882 63.8307 23.728 63.3174 23.728C62.832 23.728 62.4214 23.8773 62.0854 24.176C61.7587 24.4653 61.558 24.8713 61.4834 25.394H65.1654ZM68.122 26.122C68.122 25.3193 68.2853 24.6193 68.612 24.022C68.9387 23.4153 69.3913 22.9487 69.97 22.622C70.5487 22.286 71.2113 22.118 71.958 22.118C72.9193 22.118 73.7127 22.3607 74.338 22.846C74.9727 23.322 75.3973 23.994 75.612 24.862H73.498C73.386 24.526 73.1947 24.2647 72.924 24.078C72.6627 23.882 72.336 23.784 71.944 23.784C71.384 23.784 70.9407 23.9893 70.614 24.4C70.2873 24.8013 70.124 25.3753 70.124 26.122C70.124 26.8593 70.2873 27.4333 70.614 27.844C70.9407 28.2453 71.384 28.446 71.944 28.446C72.7373 28.446 73.2553 28.0913 73.498 27.382H75.612C75.3973 28.222 74.9727 28.8893 74.338 29.384C73.7033 29.8787 72.91 30.126 71.958 30.126C71.2113 30.126 70.5487 29.9627 69.97 29.636C69.3913 29.3 68.9387 28.8333 68.612 28.236C68.2853 27.6293 68.122 26.9247 68.122 26.122ZM78.0419 21.32C77.6965 21.32 77.4072 21.2127 77.1739 20.998C76.9499 20.774 76.8379 20.4987 76.8379 20.172C76.8379 19.8453 76.9499 19.5747 77.1739 19.36C77.4072 19.136 77.6965 19.024 78.0419 19.024C78.3872 19.024 78.6719 19.136 78.8959 19.36C79.1292 19.5747 79.2459 19.8453 79.2459 20.172C79.2459 20.4987 79.1292 20.774 78.8959 20.998C78.6719 21.2127 78.3872 21.32 78.0419 21.32ZM79.0079 22.244V30H77.0479V22.244H79.0079ZM80.4403 26.094C80.4403 25.31 80.5943 24.6147 80.9023 24.008C81.2197 23.4013 81.6443 22.9347 82.1763 22.608C82.7177 22.2813 83.3197 22.118 83.9823 22.118C84.561 22.118 85.065 22.2347 85.4943 22.468C85.933 22.7013 86.283 22.9953 86.5443 23.35V22.244H88.5183V30H86.5443V28.866C86.2923 29.23 85.9423 29.5333 85.4943 29.776C85.0557 30.0093 84.547 30.126 83.9683 30.126C83.315 30.126 82.7177 29.958 82.1763 29.622C81.6443 29.286 81.2197 28.8147 80.9023 28.208C80.5943 27.592 80.4403 26.8873 80.4403 26.094ZM86.5443 26.122C86.5443 25.646 86.451 25.24 86.2643 24.904C86.0777 24.5587 85.8257 24.2973 85.5083 24.12C85.191 23.9333 84.8503 23.84 84.4863 23.84C84.1223 23.84 83.7863 23.9287 83.4783 24.106C83.1703 24.2833 82.9183 24.5447 82.7223 24.89C82.5357 25.226 82.4423 25.6273 82.4423 26.094C82.4423 26.5607 82.5357 26.9713 82.7223 27.326C82.9183 27.6713 83.1703 27.9373 83.4783 28.124C83.7957 28.3107 84.1317 28.404 84.4863 28.404C84.8503 28.404 85.191 28.3153 85.5083 28.138C85.8257 27.9513 86.0777 27.69 86.2643 27.354C86.451 27.0087 86.5443 26.598 86.5443 26.122ZM92.3926 19.64V30H90.4326V19.64H92.3926ZM96.6111 23.854V27.606C96.6111 27.8673 96.6718 28.0587 96.7931 28.18C96.9238 28.292 97.1384 28.348 97.4371 28.348H98.3471V30H97.1151C95.4631 30 94.6371 29.1973 94.6371 27.592V23.854H93.7131V22.244H94.6371V20.326H96.6111V22.244H98.3471V23.854H96.6111ZM107.177 22.244L102.375 33.668H100.289L101.969 29.804L98.8608 22.244H101.059L103.061 27.662L105.091 22.244H107.177Z" fill="white"/>
<path d="M52.7961 44.112H55.7241V45H51.7041V36.636H52.7961V44.112ZM57.4478 37.356C57.2398 37.356 57.0638 37.284 56.9198 37.14C56.7758 36.996 56.7038 36.82 56.7038 36.612C56.7038 36.404 56.7758 36.228 56.9198 36.084C57.0638 35.94 57.2398 35.868 57.4478 35.868C57.6478 35.868 57.8158 35.94 57.9518 36.084C58.0958 36.228 58.1678 36.404 58.1678 36.612C58.1678 36.82 58.0958 36.996 57.9518 37.14C57.8158 37.284 57.6478 37.356 57.4478 37.356ZM57.9758 38.424V45H56.8838V38.424H57.9758ZM67.7449 38.304C68.2569 38.304 68.7129 38.412 69.1129 38.628C69.5129 38.836 69.8289 39.152 70.0609 39.576C70.2929 40 70.4089 40.516 70.4089 41.124V45H69.3289V41.28C69.3289 40.624 69.1649 40.124 68.8369 39.78C68.5169 39.428 68.0809 39.252 67.5289 39.252C66.9609 39.252 66.5089 39.436 66.1729 39.804C65.8369 40.164 65.6689 40.688 65.6689 41.376V45H64.5889V41.28C64.5889 40.624 64.4249 40.124 64.0969 39.78C63.7769 39.428 63.3409 39.252 62.7889 39.252C62.2209 39.252 61.7689 39.436 61.4329 39.804C61.0969 40.164 60.9289 40.688 60.9289 41.376V45H59.8369V38.424H60.9289V39.372C61.1449 39.028 61.4329 38.764 61.7929 38.58C62.1609 38.396 62.5649 38.304 63.0049 38.304C63.5569 38.304 64.0449 38.428 64.4689 38.676C64.8929 38.924 65.2089 39.288 65.4169 39.768C65.6009 39.304 65.9049 38.944 66.3289 38.688C66.7529 38.432 67.2249 38.304 67.7449 38.304ZM72.7642 37.356C72.5562 37.356 72.3802 37.284 72.2362 37.14C72.0922 36.996 72.0202 36.82 72.0202 36.612C72.0202 36.404 72.0922 36.228 72.2362 36.084C72.3802 35.94 72.5562 35.868 72.7642 35.868C72.9642 35.868 73.1322 35.94 73.2682 36.084C73.4122 36.228 73.4842 36.404 73.4842 36.612C73.4842 36.82 73.4122 36.996 73.2682 37.14C73.1322 37.284 72.9642 37.356 72.7642 37.356ZM73.2922 38.424V45H72.2002V38.424H73.2922ZM76.4853 39.324V43.2C76.4853 43.52 76.5533 43.748 76.6893 43.884C76.8253 44.012 77.0613 44.076 77.3973 44.076H78.2013V45H77.2173C76.6093 45 76.1533 44.86 75.8493 44.58C75.5453 44.3 75.3933 43.84 75.3933 43.2V39.324H74.5413V38.424H75.3933V36.768H76.4853V38.424H78.2013V39.324H76.4853ZM85.5244 41.46C85.5244 41.668 85.5124 41.888 85.4884 42.12H80.2324C80.2724 42.768 80.4924 43.276 80.8924 43.644C81.3004 44.004 81.7924 44.184 82.3684 44.184C82.8404 44.184 83.2324 44.076 83.5444 43.86C83.8644 43.636 84.0884 43.34 84.2164 42.972H85.3924C85.2164 43.604 84.8644 44.12 84.3364 44.52C83.8084 44.912 83.1524 45.108 82.3684 45.108C81.7444 45.108 81.1844 44.968 80.6884 44.688C80.2004 44.408 79.8164 44.012 79.5364 43.5C79.2564 42.98 79.1164 42.38 79.1164 41.7C79.1164 41.02 79.2524 40.424 79.5244 39.912C79.7964 39.4 80.1764 39.008 80.6644 38.736C81.1604 38.456 81.7284 38.316 82.3684 38.316C82.9924 38.316 83.5444 38.452 84.0244 38.724C84.5044 38.996 84.8724 39.372 85.1284 39.852C85.3924 40.324 85.5244 40.86 85.5244 41.46ZM84.3964 41.232C84.3964 40.816 84.3044 40.46 84.1204 40.164C83.9364 39.86 83.6844 39.632 83.3644 39.48C83.0524 39.32 82.7044 39.24 82.3204 39.24C81.7684 39.24 81.2964 39.416 80.9044 39.768C80.5204 40.12 80.3004 40.608 80.2444 41.232H84.3964ZM86.5578 41.688C86.5578 41.016 86.6938 40.428 86.9658 39.924C87.2378 39.412 87.6098 39.016 88.0818 38.736C88.5618 38.456 89.0978 38.316 89.6898 38.316C90.2018 38.316 90.6778 38.436 91.1178 38.676C91.5578 38.908 91.8938 39.216 92.1258 39.6V36.12H93.2298V45H92.1258V43.764C91.9098 44.156 91.5898 44.48 91.1658 44.736C90.7418 44.984 90.2458 45.108 89.6778 45.108C89.0938 45.108 88.5618 44.964 88.0818 44.676C87.6098 44.388 87.2378 43.984 86.9658 43.464C86.6938 42.944 86.5578 42.352 86.5578 41.688ZM92.1258 41.7C92.1258 41.204 92.0258 40.772 91.8258 40.404C91.6258 40.036 91.3538 39.756 91.0098 39.564C90.6738 39.364 90.3018 39.264 89.8938 39.264C89.4858 39.264 89.1138 39.36 88.7778 39.552C88.4418 39.744 88.1738 40.024 87.9738 40.392C87.7738 40.76 87.6738 41.192 87.6738 41.688C87.6738 42.192 87.7738 42.632 87.9738 43.008C88.1738 43.376 88.4418 43.66 88.7778 43.86C89.1138 44.052 89.4858 44.148 89.8938 44.148C90.3018 44.148 90.6738 44.052 91.0098 43.86C91.3538 43.66 91.6258 43.376 91.8258 43.008C92.0258 42.632 92.1258 42.196 92.1258 41.7Z" fill="#DAD7D7" fill-opacity="0.95"/>
<defs>
<linearGradient id="paint0_linear_576_324" x1="8.94952" y1="36.3378" x2="33.3925" y2="11.823" gradientUnits="userSpaceOnUse">
<stop stop-color="#3181B7"/>
<stop offset="0.5335" stop-color="#009647"/>
</linearGradient>
</defs>
</svg>
