<svg width="260" height="139" viewBox="0 0 260 139" fill="none" xmlns="http://www.w3.org/2000/svg">
<path d="M97.2042 90.9166C96.6157 90.4996 96.5788 89.6906 97.1276 89.2289L114.284 74.8066C114.833 74.3449 114.796 73.5372 114.207 73.1189L79.0599 48.193C78.4715 47.776 78.4346 46.967 78.9834 46.5053L90.6961 36.6607C91.2449 36.199 91.208 35.39 90.6196 34.973L85.0047 30.9938C84.5495 30.6702 83.9083 30.6952 83.4835 31.053L71.131 41.4357C70.7062 41.7934 70.065 41.8171 69.6099 41.4948L63.0517 36.8422C62.4633 36.4252 62.4276 35.6162 62.9765 35.1545L74.672 25.3309C75.2208 24.8692 75.1852 24.0602 74.5968 23.6433L68.9819 19.6615C68.5267 19.3379 67.8855 19.3629 67.4607 19.7207L48.43 35.7201C47.8811 36.1819 47.9181 36.9908 48.5078 37.4078L62.2443 47.142C62.8327 47.5589 62.8696 48.3679 62.3208 48.8296L45.1647 63.2519C44.6159 63.7136 44.6528 64.5213 45.2412 64.9396L80.3885 89.8656C80.9769 90.2825 81.0138 91.0915 80.465 91.5532L68.7523 101.398C68.2035 101.86 68.2404 102.669 68.8288 103.086L74.4437 107.065C74.8989 107.388 75.5401 107.363 75.9649 107.006L88.3174 96.6229C88.7422 96.2651 89.3834 96.2414 89.8386 96.5637L96.3967 101.216C96.9852 101.633 97.0208 102.442 96.472 102.904L84.7764 112.726C84.2276 113.188 84.2632 113.997 84.8516 114.414L90.4665 118.396C90.9217 118.719 91.5629 118.694 91.9877 118.337L111.018 102.337C111.567 101.875 111.53 101.066 110.941 100.649L97.2042 90.9166ZM71.6904 53.844L80.6339 60.187C81.2104 60.5961 81.2592 61.384 80.7368 61.8523L70.6218 70.8866C70.1983 71.2642 69.5413 71.2997 69.0742 70.9682L59.7877 64.3819C59.1993 63.9649 59.1624 63.1559 59.7112 62.6942L70.1692 53.9019C70.5954 53.5454 71.2352 53.5204 71.6904 53.844ZM87.758 84.2171L78.5151 77.6597C77.9385 77.2507 77.8897 76.4627 78.4122 75.9957L88.5245 66.9601C88.948 66.5826 89.605 66.5471 90.0721 66.8786L99.6607 73.6793C100.249 74.0963 100.286 74.9053 99.7372 75.367L89.2792 84.1592C88.853 84.5157 88.2132 84.5407 87.758 84.2171Z" fill="url(#paint0_linear_449_92)"/>
<path d="M133.172 45.6174C131.901 45.6174 130.752 45.3997 129.725 44.9644C128.715 44.5291 127.914 43.9023 127.322 43.0839C126.73 42.2655 126.425 41.2991 126.408 40.1847H130.325C130.378 40.9334 130.639 41.5254 131.109 41.9607C131.597 42.3961 132.258 42.6137 133.094 42.6137C133.947 42.6137 134.618 42.4135 135.105 42.013C135.593 41.5951 135.837 41.0553 135.837 40.3936C135.837 39.8538 135.671 39.4098 135.34 39.0615C135.009 38.7133 134.592 38.4434 134.087 38.2518C133.599 38.0429 132.92 37.8165 132.049 37.5728C130.865 37.2245 129.899 36.885 129.15 36.5541C128.419 36.2059 127.783 35.6922 127.243 35.0131C126.721 34.3166 126.46 33.3937 126.46 32.2445C126.46 31.1649 126.73 30.2246 127.27 29.4236C127.809 28.6226 128.567 28.0132 129.542 27.5953C130.517 27.16 131.631 26.9423 132.885 26.9423C134.766 26.9423 136.289 27.4038 137.456 28.3266C138.64 29.2321 139.293 30.5032 139.415 32.14H135.393C135.358 31.5131 135.088 30.9995 134.583 30.599C134.095 30.1811 133.442 29.9721 132.624 29.9721C131.91 29.9721 131.335 30.155 130.9 30.5206C130.482 30.8863 130.273 31.4174 130.273 32.1139C130.273 32.6014 130.43 33.0106 130.743 33.3415C131.074 33.6549 131.475 33.9161 131.945 34.125C132.432 34.3166 133.111 34.5429 133.982 34.8041C135.166 35.1524 136.133 35.5006 136.881 35.8489C137.63 36.1972 138.274 36.7195 138.814 37.416C139.354 38.1125 139.624 39.0267 139.624 40.1585C139.624 41.1336 139.371 42.0391 138.866 42.8749C138.361 43.7107 137.621 44.3811 136.646 44.8861C135.671 45.3736 134.513 45.6174 133.172 45.6174ZM156.637 30.9646L147.678 52.2777H143.787L146.921 45.0689L141.122 30.9646H145.223L148.958 41.0727L152.745 30.9646H156.637ZM166.627 30.7557C168.351 30.7557 169.744 31.3042 170.806 32.4012C171.868 33.4808 172.399 34.9957 172.399 36.9459V45.4346H168.742V37.4422C168.742 36.2929 168.455 35.4136 167.88 34.8041C167.306 34.1773 166.522 33.8639 165.53 33.8639C164.52 33.8639 163.719 34.1773 163.127 34.8041C162.552 35.4136 162.265 36.2929 162.265 37.4422V45.4346H158.608V30.9646H162.265V32.7669C162.752 32.14 163.371 31.6524 164.119 31.3042C164.886 30.9385 165.721 30.7557 166.627 30.7557ZM189.328 37.8862C189.328 38.4086 189.293 38.8787 189.223 39.2966H178.645C178.732 40.3414 179.098 41.1598 179.742 41.7518C180.386 42.3438 181.179 42.6398 182.119 42.6398C183.477 42.6398 184.443 42.0565 185.018 40.8899H188.962C188.544 42.2829 187.743 43.4321 186.559 44.3376C185.375 45.2256 183.921 45.6696 182.197 45.6696C180.804 45.6696 179.55 45.3649 178.436 44.7555C177.339 44.1286 176.477 43.2493 175.85 42.1175C175.241 40.9856 174.936 39.6797 174.936 38.1996C174.936 36.7021 175.241 35.3875 175.85 34.2556C176.46 33.1238 177.313 32.2532 178.41 31.6437C179.507 31.0343 180.769 30.7296 182.197 30.7296C183.573 30.7296 184.8 31.0256 185.88 31.6176C186.977 32.2097 187.821 33.0542 188.413 34.1512C189.023 35.2307 189.328 36.4758 189.328 37.8862ZM185.54 36.8414C185.523 35.9011 185.183 35.1524 184.522 34.5952C183.86 34.0206 183.05 33.7333 182.093 33.7333C181.187 33.7333 180.421 34.0119 179.794 34.5691C179.185 35.1089 178.81 35.8663 178.671 36.8414H185.54ZM195.653 33.2109C196.123 32.4447 196.733 31.844 197.482 31.4087C198.248 30.9734 199.118 30.7557 200.094 30.7557V34.5952H199.127C197.978 34.5952 197.107 34.8651 196.515 35.4049C195.941 35.9447 195.653 36.885 195.653 38.2257V45.4346H191.997V30.9646H195.653V33.2109ZM208.224 30.7296C209.304 30.7296 210.253 30.9472 211.071 31.3825C211.89 31.8005 212.534 32.349 213.004 33.028V30.9646H216.687V45.539C216.687 46.8798 216.417 48.0726 215.877 49.1173C215.337 50.1795 214.528 51.0153 213.448 51.6248C212.369 52.2516 211.063 52.5651 209.53 52.5651C207.476 52.5651 205.787 52.0862 204.463 51.1285C203.157 50.1708 202.417 48.8649 202.243 47.2107H205.874C206.065 47.8723 206.474 48.3947 207.101 48.7778C207.745 49.1783 208.52 49.3785 209.426 49.3785C210.488 49.3785 211.35 49.0564 212.012 48.4121C212.673 47.7853 213.004 46.8276 213.004 45.539V43.2928C212.534 43.9719 211.881 44.5378 211.045 44.9905C210.227 45.4433 209.287 45.6696 208.224 45.6696C207.005 45.6696 205.891 45.3562 204.881 44.7294C203.871 44.1025 203.07 43.2232 202.478 42.0913C201.904 40.9421 201.616 39.6274 201.616 38.1474C201.616 36.6847 201.904 35.3875 202.478 34.2556C203.07 33.1238 203.862 32.2532 204.855 31.6437C205.865 31.0343 206.988 30.7296 208.224 30.7296ZM213.004 38.1996C213.004 37.3116 212.83 36.5541 212.482 35.9273C212.133 35.283 211.663 34.7954 211.071 34.4646C210.479 34.1163 209.844 33.9422 209.165 33.9422C208.486 33.9422 207.859 34.1076 207.284 34.4385C206.709 34.7693 206.239 35.2569 205.874 35.9011C205.525 36.528 205.351 37.2767 205.351 38.1474C205.351 39.018 205.525 39.7842 205.874 40.4458C206.239 41.0901 206.709 41.5864 207.284 41.9346C207.876 42.2829 208.503 42.457 209.165 42.457C209.844 42.457 210.479 42.2916 211.071 41.9607C211.663 41.6125 212.133 41.1249 212.482 40.4981C212.83 39.8538 213.004 39.0877 213.004 38.1996ZM234.101 30.9646L225.143 52.2777H221.251L224.385 45.0689L218.587 30.9646H222.687L226.422 41.0727L230.21 30.9646H234.101ZM129.066 78.6174C127.795 78.6174 126.645 78.3997 125.618 77.9644C124.608 77.5291 123.807 76.9023 123.215 76.0839C122.623 75.2655 122.318 74.2991 122.301 73.1847H126.219C126.271 73.9334 126.532 74.5254 127.002 74.9607C127.49 75.3961 128.152 75.6137 128.987 75.6137C129.841 75.6137 130.511 75.4135 130.999 75.013C131.486 74.5951 131.73 74.0553 131.73 73.3936C131.73 72.8538 131.565 72.4098 131.234 72.0615C130.903 71.7133 130.485 71.4434 129.98 71.2518C129.492 71.0429 128.813 70.8165 127.943 70.5728C126.759 70.2245 125.792 69.885 125.044 69.5541C124.312 69.2059 123.677 68.6922 123.137 68.0131C122.614 67.3166 122.353 66.3937 122.353 65.2445C122.353 64.1649 122.623 63.2246 123.163 62.4236C123.703 61.6226 124.46 61.0132 125.435 60.5953C126.41 60.16 127.525 59.9423 128.779 59.9423C130.659 59.9423 132.183 60.4038 133.349 61.3266C134.533 62.2321 135.186 63.5032 135.308 65.14H131.286C131.251 64.5131 130.981 63.9995 130.476 63.599C129.989 63.1811 129.336 62.9721 128.517 62.9721C127.803 62.9721 127.229 63.155 126.793 63.5206C126.376 63.8863 126.167 64.4174 126.167 65.1139C126.167 65.6014 126.323 66.0106 126.637 66.3415C126.968 66.6549 127.368 66.9161 127.838 67.125C128.326 67.3166 129.005 67.5429 129.876 67.8041C131.06 68.1524 132.026 68.5006 132.775 68.8489C133.523 69.1972 134.168 69.7195 134.708 70.416C135.247 71.1125 135.517 72.0267 135.517 73.1585C135.517 74.1336 135.265 75.0391 134.76 75.8749C134.255 76.7107 133.515 77.3811 132.54 77.8861C131.565 78.3736 130.407 78.6174 129.066 78.6174ZM142.344 66.0542C142.814 65.3925 143.458 64.844 144.277 64.4087C145.113 63.9559 146.062 63.7296 147.124 63.7296C148.36 63.7296 149.475 64.0343 150.467 64.6437C151.477 65.2532 152.269 66.1238 152.844 67.2556C153.436 68.37 153.732 69.6673 153.732 71.1474C153.732 72.6274 153.436 73.9421 152.844 75.0913C152.269 76.2232 151.477 77.1025 150.467 77.7294C149.475 78.3562 148.36 78.6696 147.124 78.6696C146.062 78.6696 145.121 78.452 144.303 78.0167C143.502 77.5813 142.849 77.0329 142.344 76.3712V85.33H138.687V63.9646H142.344V66.0542ZM149.997 71.1474C149.997 70.2767 149.814 69.528 149.448 68.9011C149.1 68.2569 148.63 67.7693 148.038 67.4385C147.463 67.1076 146.837 66.9422 146.157 66.9422C145.496 66.9422 144.869 67.1163 144.277 67.4646C143.702 67.7954 143.232 68.283 142.866 68.9273C142.518 69.5715 142.344 70.329 142.344 71.1996C142.344 72.0702 142.518 72.8277 142.866 73.472C143.232 74.1162 143.702 74.6125 144.277 74.9607C144.869 75.2916 145.496 75.457 146.157 75.457C146.837 75.457 147.463 75.2829 148.038 74.9346C148.63 74.5864 149.1 74.0901 149.448 73.4458C149.814 72.8016 149.997 72.0354 149.997 71.1474ZM169.84 70.8862C169.84 71.4086 169.806 71.8787 169.736 72.2966H159.158C159.245 73.3414 159.61 74.1598 160.255 74.7518C160.899 75.3438 161.691 75.6398 162.632 75.6398C163.99 75.6398 164.956 75.0565 165.531 73.8899H169.475C169.057 75.2829 168.256 76.4321 167.072 77.3376C165.888 78.2256 164.434 78.6696 162.71 78.6696C161.317 78.6696 160.063 78.3649 158.949 77.7555C157.852 77.1286 156.99 76.2493 156.363 75.1175C155.754 73.9856 155.449 72.6797 155.449 71.1996C155.449 69.7021 155.754 68.3875 156.363 67.2556C156.972 66.1238 157.826 65.2532 158.923 64.6437C160.02 64.0343 161.282 63.7296 162.71 63.7296C164.086 63.7296 165.313 64.0256 166.393 64.6176C167.49 65.2097 168.334 66.0542 168.926 67.1512C169.536 68.2307 169.84 69.4758 169.84 70.8862ZM166.053 69.8414C166.036 68.9011 165.696 68.1524 165.035 67.5952C164.373 67.0206 163.563 66.7333 162.605 66.7333C161.7 66.7333 160.934 67.0119 160.307 67.5691C159.698 68.1089 159.323 68.8663 159.184 69.8414H166.053ZM171.569 71.1996C171.569 69.7021 171.874 68.3962 172.483 67.2818C173.093 66.1499 173.937 65.2793 175.017 64.6699C176.096 64.043 177.333 63.7296 178.726 63.7296C180.519 63.7296 181.999 64.1823 183.166 65.0878C184.35 65.9758 185.142 67.2295 185.543 68.8489H181.599C181.39 68.222 181.033 67.7345 180.528 67.3862C180.04 67.0206 179.431 66.8377 178.7 66.8377C177.655 66.8377 176.828 67.2208 176.218 67.987C175.609 68.7357 175.304 69.8066 175.304 71.1996C175.304 72.5752 175.609 73.6461 176.218 74.4122C176.828 75.161 177.655 75.5354 178.7 75.5354C180.18 75.5354 181.146 74.8737 181.599 73.5503H185.543C185.142 75.1175 184.35 76.3625 183.166 77.2853C181.982 78.2082 180.502 78.6696 178.726 78.6696C177.333 78.6696 176.096 78.3649 175.017 77.7555C173.937 77.1286 173.093 76.258 172.483 75.1436C171.874 74.0118 171.569 72.6971 171.569 71.1996ZM190.076 62.2408C189.432 62.2408 188.892 62.0405 188.457 61.6401C188.039 61.2222 187.83 60.7085 187.83 60.099C187.83 59.4896 188.039 58.9846 188.457 58.5841C188.892 58.1662 189.432 57.9573 190.076 57.9573C190.72 57.9573 191.251 58.1662 191.669 58.5841C192.105 58.9846 192.322 59.4896 192.322 60.099C192.322 60.7085 192.105 61.2222 191.669 61.6401C191.251 62.0405 190.72 62.2408 190.076 62.2408ZM191.878 63.9646V78.4346H188.222V63.9646H191.878ZM194.551 71.1474C194.551 69.6847 194.838 68.3875 195.413 67.2556C196.005 66.1238 196.797 65.2532 197.79 64.6437C198.8 64.0343 199.923 63.7296 201.159 63.7296C202.239 63.7296 203.179 63.9472 203.98 64.3825C204.798 64.8179 205.451 65.3664 205.939 66.028V63.9646H209.621V78.4346H205.939V76.3189C205.469 76.998 204.816 77.5639 203.98 78.0167C203.161 78.452 202.212 78.6696 201.133 78.6696C199.914 78.6696 198.8 78.3562 197.79 77.7294C196.797 77.1025 196.005 76.2232 195.413 75.0913C194.838 73.9421 194.551 72.6274 194.551 71.1474ZM205.939 71.1996C205.939 70.3116 205.765 69.5541 205.416 68.9273C205.068 68.283 204.598 67.7954 204.006 67.4646C203.414 67.1163 202.778 66.9422 202.099 66.9422C201.42 66.9422 200.793 67.1076 200.219 67.4385C199.644 67.7693 199.174 68.2569 198.808 68.9011C198.46 69.528 198.286 70.2767 198.286 71.1474C198.286 72.018 198.46 72.7842 198.808 73.4458C199.174 74.0901 199.644 74.5864 200.219 74.9346C200.811 75.2829 201.438 75.457 202.099 75.457C202.778 75.457 203.414 75.2916 204.006 74.9607C204.598 74.6125 205.068 74.1249 205.416 73.4981C205.765 72.8538 205.939 72.0877 205.939 71.1996ZM216.85 59.1065V78.4346H213.193V59.1065H216.85ZM224.72 66.9683V73.9682C224.72 74.4558 224.833 74.8127 225.059 75.0391C225.303 75.2481 225.704 75.3525 226.261 75.3525H227.958V78.4346H225.66C222.578 78.4346 221.037 76.9371 221.037 73.9421V66.9683H219.313V63.9646H221.037V60.3863H224.72V63.9646H227.958V66.9683H224.72ZM244.432 63.9646L235.473 85.2777H231.581L234.715 78.0689L228.917 63.9646H233.018L236.753 74.0727L240.54 63.9646H244.432Z" fill="white"/>
<path d="M142.977 104.778H148.439V106.435H140.939V90.8303H142.977V104.778ZM151.655 92.1736C151.267 92.1736 150.939 92.0393 150.67 91.7706C150.401 91.502 150.267 91.1736 150.267 90.7856C150.267 90.3975 150.401 90.0692 150.67 89.8005C150.939 89.5318 151.267 89.3975 151.655 89.3975C152.028 89.3975 152.342 89.5318 152.595 89.8005C152.864 90.0692 152.998 90.3975 152.998 90.7856C152.998 91.1736 152.864 91.502 152.595 91.7706C152.342 92.0393 152.028 92.1736 151.655 92.1736ZM152.64 94.1661V106.435H150.603V94.1661H152.64ZM170.866 93.9422C171.821 93.9422 172.672 94.1437 173.418 94.5467C174.164 94.9347 174.754 95.5243 175.187 96.3153C175.619 97.1064 175.836 98.069 175.836 99.2033V106.435H173.821V99.4944C173.821 98.2705 173.515 97.3377 172.903 96.6959C172.306 96.0392 171.493 95.7109 170.463 95.7109C169.403 95.7109 168.56 96.0541 167.933 96.7407C167.306 97.4123 166.993 98.3899 166.993 99.6735V106.435H164.978V99.4944C164.978 98.2705 164.672 97.3377 164.06 96.6959C163.463 96.0392 162.649 95.7109 161.62 95.7109C160.56 95.7109 159.717 96.0541 159.09 96.7407C158.463 97.4123 158.149 98.3899 158.149 99.6735V106.435H156.112V94.1661H158.149V95.9347C158.552 95.293 159.09 94.8004 159.761 94.4571C160.448 94.1139 161.202 93.9422 162.023 93.9422C163.052 93.9422 163.963 94.1736 164.754 94.6362C165.545 95.0989 166.134 95.778 166.522 96.6735C166.866 95.8079 167.433 95.1362 168.224 94.6586C169.015 94.181 169.896 93.9422 170.866 93.9422ZM180.23 92.1736C179.842 92.1736 179.513 92.0393 179.245 91.7706C178.976 91.502 178.842 91.1736 178.842 90.7856C178.842 90.3975 178.976 90.0692 179.245 89.8005C179.513 89.5318 179.842 89.3975 180.23 89.3975C180.603 89.3975 180.916 89.5318 181.17 89.8005C181.439 90.0692 181.573 90.3975 181.573 90.7856C181.573 91.1736 181.439 91.502 181.17 91.7706C180.916 92.0393 180.603 92.1736 180.23 92.1736ZM181.215 94.1661V106.435H179.178V94.1661H181.215ZM187.172 95.8452V103.076C187.172 103.673 187.299 104.099 187.553 104.353C187.806 104.591 188.247 104.711 188.874 104.711H190.374V106.435H188.538C187.404 106.435 186.553 106.173 185.986 105.651C185.418 105.129 185.135 104.27 185.135 103.076V95.8452H183.545V94.1661H185.135V91.0766H187.172V94.1661H190.374V95.8452H187.172ZM204.036 99.8302C204.036 100.218 204.014 100.629 203.969 101.062H194.163C194.238 102.27 194.648 103.218 195.394 103.905C196.155 104.576 197.073 104.912 198.148 104.912C199.029 104.912 199.76 104.711 200.342 104.308C200.939 103.89 201.357 103.338 201.596 102.651H203.79C203.461 103.83 202.805 104.793 201.82 105.539C200.834 106.27 199.611 106.636 198.148 106.636C196.984 106.636 195.939 106.375 195.014 105.852C194.103 105.33 193.387 104.591 192.864 103.636C192.342 102.666 192.081 101.547 192.081 100.278C192.081 99.0093 192.335 97.8974 192.842 96.9422C193.35 95.987 194.058 95.2556 194.969 94.7482C195.894 94.2258 196.954 93.9646 198.148 93.9646C199.312 93.9646 200.342 94.2183 201.237 94.7258C202.133 95.2333 202.82 95.9347 203.297 96.8302C203.79 97.7108 204.036 98.7108 204.036 99.8302ZM201.931 99.4048C201.931 98.6287 201.76 97.9646 201.417 97.4123C201.073 96.8452 200.603 96.4198 200.006 96.1362C199.424 95.8377 198.775 95.6885 198.058 95.6885C197.029 95.6885 196.148 96.0168 195.417 96.6735C194.7 97.3302 194.29 98.2407 194.185 99.4048H201.931ZM205.964 100.256C205.964 99.0019 206.218 97.9049 206.725 96.9646C207.233 96.0094 207.927 95.2706 208.807 94.7482C209.703 94.2258 210.703 93.9646 211.807 93.9646C212.762 93.9646 213.65 94.1885 214.471 94.6362C215.292 95.0691 215.919 95.6437 216.352 96.3601V89.8677H218.411V106.435H216.352V104.129C215.949 104.86 215.352 105.464 214.561 105.942C213.77 106.405 212.844 106.636 211.785 106.636C210.695 106.636 209.703 106.367 208.807 105.83C207.927 105.293 207.233 104.539 206.725 103.569C206.218 102.599 205.964 101.494 205.964 100.256ZM216.352 100.278C216.352 99.3526 216.165 98.5466 215.792 97.8601C215.419 97.1735 214.911 96.6511 214.27 96.2929C213.643 95.9198 212.949 95.7332 212.188 95.7332C211.426 95.7332 210.732 95.9123 210.106 96.2705C209.479 96.6288 208.979 97.1511 208.606 97.8377C208.232 98.5242 208.046 99.3302 208.046 100.256C208.046 101.196 208.232 102.017 208.606 102.718C208.979 103.405 209.479 103.935 210.106 104.308C210.732 104.666 211.426 104.845 212.188 104.845C212.949 104.845 213.643 104.666 214.27 104.308C214.911 103.935 215.419 103.405 215.792 102.718C216.165 102.017 216.352 101.203 216.352 100.278Z" fill="#DAD7D7" fill-opacity="0.95"/>
<defs>
<linearGradient id="paint0_linear_449_92" x1="61.4721" y1="87.228" x2="107.074" y2="41.492" gradientUnits="userSpaceOnUse">
<stop stop-color="#314AB7"/>
<stop offset="0.5335" stop-color="#009647"/>
</linearGradient>
</defs>
</svg>
