<svg width="53" height="53" viewBox="0 0 53 53" fill="none" xmlns="http://www.w3.org/2000/svg">
<rect y="0.828125" width="53" height="51.3438" rx="25.6719" fill="#E0E0E0"/>
<path d="M16.5662 20.2509L26.5 26.3207L36.4338 20.2509C36.397 19.4773 36.1196 18.7502 35.6584 18.2184C35.1972 17.6866 34.5872 17.3905 33.9531 17.3906H19.0469C18.4129 17.3905 17.8028 17.6866 17.3416 18.2184C16.8804 18.7502 16.603 19.4773 16.5662 20.2509Z" fill="#010101"/>
<path d="M36.4375 23.6429L26.5 29.7157L16.5625 23.6429V32.573C16.5625 33.3783 16.8242 34.1506 17.2902 34.72C17.7561 35.2895 18.388 35.6094 19.0469 35.6094H33.9531C34.612 35.6094 35.2439 35.2895 35.7098 34.72C36.1758 34.1506 36.4375 33.3783 36.4375 32.573V23.6429Z" fill="#010101"/>
</svg>
